# xmcd
#
# Track frame offsets:
# 150
# 18789
# 40861
# 65539
# 80087
# 94465
# 112904
# 136317
# 153963
# 172772
# 196530
# 215400
#
# Disc length: 3127 seconds
#
#
# Revision: 0
# Processed by: cddbd v1.5.1PL0 Copyright (c) Steve Scherf et al.
# Submitted via: FreeRIP 2.53 
#
DISCID=910c350c
DTITLE=Vas - Jammin with the Blues
DYEAR=1900
DGENRE=Blues
TTITLE0=In The Name Of Love
TTITLE1=What
TTITLE2=Who Wants Another Drink
TTITLE3=Just A Young Boy
TTITLE4=Hey Pretty Baby
TTITLE5=Rebel In Your Head
TTITLE6=The State I'm In
TTITLE7=Got Myself To Blame
TTITLE8=Bypass Blues
TTITLE9=Round The Horn
TTITLE10=Carry Me Over
TTITLE11=The Greatest Wine
EXTD=BluesfestRadio.com
EXTT0=
EXTT1=
EXTT2=
EXTT3=
EXTT4=
EXTT5=
EXTT6=
EXTT7=
EXTT8=
EXTT9=
EXTT10=
EXTT11=
PLAYORDER=
